<?xml version="1.0" standalone="no"?>
<!DOCTYPE svg PUBLIC "-//W3C//DTD SVG 20010904//EN"
 "http://www.w3.org/TR/2001/REC-SVG-20010904/DTD/svg10.dtd">
<svg version="1.0" xmlns="http://www.w3.org/2000/svg"
 width="400.000000pt" height="400.000000pt" viewBox="0 0 400.000000 400.000000"
 preserveAspectRatio="xMidYMid meet">
<metadata>
Created by potrace 1.11, written by Peter Selinger 2001-2013
</metadata>
<g transform="translate(0.000000,400.000000) scale(0.100000,-0.100000)"
fill="#000000" stroke="none">
<path d="M870 2909 c-25 -5 -65 -19 -90 -32 -103 -52 -122 -214 -33 -288 l29
-24 -71 -70 c-145 -143 -205 -346 -192 -645 18 -411 175 -658 477 -754 120
-38 211 -46 536 -46 l304 0 0 49 0 49 -45 11 c-25 6 -49 19 -55 31 -7 13 -9
275 -8 801 l3 782 155 -137 c85 -76 161 -140 167 -143 7 -3 85 58 172 136 88
78 162 141 165 141 11 0 7 -1547 -4 -1574 -7 -19 -21 -28 -55 -37 l-45 -11 0
-49 0 -49 345 0 345 0 0 49 0 49 -45 11 c-34 9 -48 18 -55 37 -6 15 -10 276
-10 660 l0 634 130 0 130 0 0 -122 c0 -260 34 -657 76 -886 25 -135 68 -285
110 -379 l23 -53 100 0 101 0 0 49 c0 47 -2 50 -34 61 -43 14 -69 42 -101 112
-72 158 -122 523 -141 1038 l-7 185 46 22 c81 39 119 128 103 238 -9 57 -53
110 -116 139 -43 20 -64 21 -475 24 l-430 3 -158 -136 c-87 -75 -164 -134
-170 -131 -7 3 -79 64 -162 135 l-150 130 -410 0 c-225 -1 -430 -5 -455 -10z
m663 -100 c26 -7 41 -18 48 -36 6 -16 8 -318 7 -805 -3 -879 5 -799 -83 -812
-62 -10 -123 9 -135 40 -16 41 -13 1566 3 1587 23 33 95 44 160 26z m1180 -20
c16 -20 17 -73 17 -805 0 -751 -1 -785 -19 -803 -39 -39 -158 -34 -181 9 -16
30 -14 1571 3 1593 29 41 147 45 180 6z m-1483 -84 l0 -95 -142 0 c-79 0 -160
5 -180 10 -67 19 -98 87 -62 138 25 36 48 41 222 41 l162 1 0 -95z m1965 81
c46 -20 69 -57 61 -100 -12 -62 -38 -71 -228 -74 l-168 -4 0 96 0 96 150 0
c107 0 160 -4 185 -14z m-1965 -957 l0 -662 -49 7 c-63 8 -182 49 -235 80
-203 120 -311 385 -293 725 12 234 82 396 202 466 57 34 106 43 253 44 l122 1
0 -661z"/>
</g>
</svg>
